<svg width="16" height="16" viewBox="0 0 16 16" fill="none" xmlns="http://www.w3.org/2000/svg">
<g clip-path="url(#clip0)">
<g opacity="0.8">
<path opacity="0.8" d="M12.0969 -4.2566L5.33887 5.1886H11.0773L17.6601 -4.0114C17.6828 -4.04277 17.6964 -4.07981 17.6994 -4.11843C17.7024 -4.15705 17.6946 -4.19574 17.677 -4.23022C17.6593 -4.26471 17.6325 -4.29364 17.5995 -4.31383C17.5664 -4.33401 17.5284 -4.34467 17.4897 -4.3446H12.2677C12.2343 -4.34455 12.2013 -4.33654 12.1716 -4.32124C12.1419 -4.30594 12.1163 -4.28378 12.0969 -4.2566Z" fill="#548DE6"/>
<path opacity="0.8" d="M16.1133 -4.3446L9.29329 5.1886H7.32129L14.1425 -4.3446H16.1133Z" fill="#D2E4FF"/>
<path opacity="0.8" d="M17.49 -4.3446H16.1132L9.29199 5.1886H11.078L17.6608 -4.0114C17.6835 -4.0428 17.6971 -4.07987 17.7001 -4.11853C17.7031 -4.15718 17.6953 -4.1959 17.6776 -4.2304C17.6599 -4.2649 17.633 -4.29383 17.5999 -4.31398C17.5668 -4.33414 17.5288 -4.34474 17.49 -4.3446Z" fill="#548DE6"/>
<path opacity="0.8" d="M-1.23994 -4.0122L5.34446 5.1886H11.0817L4.32366 -4.2566C4.30425 -4.2838 4.27862 -4.30598 4.24892 -4.32128C4.21921 -4.33659 4.18628 -4.34458 4.15286 -4.3446H-1.06914C-1.10777 -4.34463 -1.14566 -4.334 -1.17865 -4.31389C-1.21163 -4.29377 -1.23842 -4.26494 -1.25608 -4.23058C-1.27374 -4.19622 -1.28157 -4.15765 -1.27873 -4.11912C-1.27588 -4.08059 -1.26246 -4.0436 -1.23994 -4.0122Z" fill="#548DE6"/>
<path opacity="0.8" d="M0.413086 -4.3446L7.23429 5.1886H9.20508L2.38389 -4.3446H0.413086Z" fill="#D2E4FF"/>
<path opacity="0.8" d="M-1.06914 -4.3446C-1.10777 -4.34463 -1.14566 -4.334 -1.17865 -4.31389C-1.21163 -4.29377 -1.23842 -4.26494 -1.25608 -4.23058C-1.27374 -4.19622 -1.28157 -4.15765 -1.27873 -4.11912C-1.27588 -4.08059 -1.26246 -4.0436 -1.23994 -4.0122L5.34446 5.1886H7.23606L0.413263 -4.3446H-1.06914Z" fill="#548DE6"/>
</g>
<path d="M8.90322 3.86955C9.03711 4.00227 9.20632 4.09371 9.3907 4.133C9.57508 4.17229 9.76686 4.15776 9.94322 4.09115C10.1859 3.99902 10.4552 4.00657 10.6923 4.11215C10.9295 4.21772 11.1153 4.41276 11.2092 4.65476C11.2776 4.8308 11.3952 4.98345 11.548 5.09445C11.7008 5.20546 11.8823 5.27013 12.0708 5.28075C12.3301 5.29492 12.5732 5.41104 12.7472 5.60377C12.9212 5.79649 13.0119 6.0502 12.9996 6.30955C12.9904 6.49819 13.0358 6.68547 13.1302 6.84904C13.2246 7.01261 13.3641 7.14554 13.532 7.23195C13.7629 7.35064 13.9375 7.5558 14.0178 7.80269C14.098 8.04959 14.0774 8.31819 13.9604 8.54995C13.8753 8.71855 13.8405 8.90808 13.8603 9.09591C13.88 9.28373 13.9534 9.46191 14.0716 9.60915C14.2342 9.81148 14.3102 10.0699 14.283 10.328C14.2559 10.5861 14.1279 10.823 13.9268 10.9872C13.7804 11.1066 13.6716 11.2656 13.6132 11.4453C13.5548 11.625 13.5494 11.8177 13.5976 12.0004C13.6638 12.2513 13.6282 12.5183 13.4984 12.7431C13.3686 12.9678 13.1553 13.1322 12.9048 13.2004C12.7225 13.2499 12.5584 13.3509 12.432 13.4913C12.3056 13.6317 12.2223 13.8055 12.192 13.992C12.1504 14.2479 12.0094 14.4771 11.7996 14.6296C11.5899 14.7822 11.3284 14.8457 11.072 14.8064C10.8853 14.7775 10.6943 14.803 10.5217 14.8798C10.3491 14.9566 10.2023 15.0815 10.0988 15.2396C9.9566 15.4567 9.73429 15.6089 9.48036 15.6628C9.22642 15.7168 8.96145 15.6682 8.74322 15.5276C8.58441 15.4253 8.39952 15.3709 8.21062 15.3709C8.02173 15.3709 7.83683 15.4253 7.67802 15.5276C7.45979 15.6682 7.19483 15.7168 6.94089 15.6628C6.68695 15.6089 6.46464 15.4567 6.32242 15.2396C6.21893 15.0815 6.07213 14.9566 5.89954 14.8798C5.72696 14.803 5.53591 14.7775 5.34922 14.8064C5.09288 14.8457 4.83137 14.7822 4.62162 14.6296C4.41187 14.4771 4.27084 14.2479 4.22922 13.992C4.19897 13.8055 4.11566 13.6317 3.98926 13.4913C3.86285 13.3509 3.6987 13.2499 3.51642 13.2004C3.26598 13.1322 3.05263 12.9678 2.92285 12.7431C2.79308 12.5183 2.75741 12.2513 2.82362 12.0004C2.87185 11.8177 2.86645 11.625 2.80807 11.4453C2.74969 11.2656 2.64081 11.1066 2.49442 10.9872C2.29337 10.823 2.16532 10.5861 2.1382 10.328C2.11108 10.0699 2.18707 9.81148 2.34962 9.60915C2.46789 9.46191 2.54126 9.28373 2.56098 9.09591C2.5807 8.90808 2.54593 8.71855 2.46082 8.54995C2.34384 8.31819 2.32323 8.04959 2.40348 7.80269C2.48373 7.5558 2.65833 7.35064 2.88922 7.23195C3.05715 7.14554 3.19666 7.01261 3.29107 6.84904C3.38548 6.68547 3.4308 6.49819 3.42162 6.30955C3.40897 6.05026 3.49933 5.79647 3.67302 5.60353C3.84671 5.41058 4.08963 5.29413 4.34882 5.27955C4.53738 5.26894 4.71889 5.20426 4.87168 5.09325C5.02446 4.98224 5.14206 4.8296 5.21042 4.65355C5.30437 4.41156 5.49017 4.21652 5.72731 4.11094C5.96446 4.00537 6.23373 3.99783 6.47642 4.08995C6.65278 4.15657 6.84457 4.17109 7.02895 4.13181C7.21333 4.09252 7.38254 4.00107 7.51642 3.86835C7.70092 3.68544 7.95027 3.58291 8.21007 3.58313C8.46987 3.58336 8.71904 3.68631 8.90322 3.86955Z" fill="#F9A31A"/>
<path d="M8.21067 5.05835C9.11493 5.05835 9.99888 5.32649 10.7507 5.82887C11.5026 6.33125 12.0886 7.0453 12.4346 7.88072C12.7807 8.71614 12.8712 9.63542 12.6948 10.5223C12.5184 11.4092 12.083 12.2238 11.4436 12.8632C10.8042 13.5026 9.98951 13.9381 9.10262 14.1145C8.21574 14.2909 7.29647 14.2004 6.46104 13.8543C5.62562 13.5083 4.91157 12.9223 4.40919 12.1704C3.90682 11.4186 3.63867 10.5346 3.63867 9.63035C3.63867 8.41778 4.12036 7.25487 4.97778 6.39746C5.8352 5.54004 6.9981 5.05835 8.21067 5.05835V5.05835Z" fill="#FFCC33"/>
<path d="M9.05078 12.5001V7.00012H8.02982L6.30078 8.73794L6.96976 9.43884L7.88162 8.50912V12.5001H9.05078Z" fill="#CE8410"/>
</g>
<defs>
<clipPath id="clip0">
<rect width="16" height="16" fill="white"/>
</clipPath>
</defs>
</svg>
