<svg width="16" height="16" viewBox="0 0 16 16" fill="none" xmlns="http://www.w3.org/2000/svg">
<g clip-path="url(#clip0)">
<g opacity="0.8">
<path opacity="0.8" d="M12.3721 -4.50578L5.6377 4.90662H11.3577L17.9165 -4.26218C17.9389 -4.29345 17.9523 -4.3303 17.9552 -4.36867C17.958 -4.40705 17.9502 -4.44548 17.9327 -4.47971C17.9151 -4.51395 17.8884 -4.54268 17.8556 -4.56273C17.8227 -4.58279 17.785 -4.59339 17.7465 -4.59338H12.5425C12.5092 -4.59338 12.4763 -4.58543 12.4467 -4.57019C12.4171 -4.55496 12.3915 -4.53288 12.3721 -4.50578Z" fill="#548DE6"/>
<path opacity="0.8" d="M16.3749 -4.59338L9.57728 4.90662H7.61328L14.4109 -4.59338H16.3749Z" fill="#D2E4FF"/>
<g opacity="0.8">
<path opacity="0.8" d="M17.7468 -4.59338H16.3747L9.57715 4.90662H11.3583L17.9183 -4.26218C17.9409 -4.29355 17.9543 -4.33055 17.9571 -4.36907C17.9599 -4.40759 17.9519 -4.44613 17.9342 -4.48042C17.9164 -4.51472 17.8895 -4.54342 17.8564 -4.56336C17.8233 -4.58329 17.7854 -4.59368 17.7468 -4.59338Z" fill="#548DE6"/>
<path opacity="0.8" d="M-1.1209 -4.26218L5.4391 4.90662H11.1591L4.4239 -4.50578C4.40453 -4.5329 4.37896 -4.555 4.34932 -4.57024C4.31968 -4.58547 4.28683 -4.59341 4.2535 -4.59338H-0.950499C-0.989018 -4.59347 -1.02681 -4.58292 -1.05972 -4.56289C-1.09262 -4.54286 -1.11936 -4.51414 -1.13698 -4.47989C-1.1546 -4.44564 -1.16243 -4.40719 -1.15959 -4.36877C-1.15675 -4.33036 -1.14336 -4.29347 -1.1209 -4.26218Z" fill="#548DE6"/>
</g>
<path opacity="0.8" d="M0.526367 -4.59338L7.32357 4.90662H9.28757L2.49037 -4.59338H0.526367Z" fill="#D2E4FF"/>
<path opacity="0.8" d="M-0.950499 -4.59338C-0.989018 -4.59347 -1.02681 -4.58292 -1.05972 -4.56289C-1.09262 -4.54286 -1.11936 -4.51414 -1.13698 -4.47989C-1.1546 -4.44564 -1.16243 -4.40719 -1.15959 -4.36877C-1.15675 -4.33036 -1.14336 -4.29347 -1.1209 -4.26218L5.4391 4.90662H7.3239L0.526701 -4.59338H-0.950499Z" fill="#548DE6"/>
</g>
<path d="M9.1006 3.80677C9.23764 3.93969 9.40957 4.03099 9.59642 4.07007C9.78328 4.10916 9.97739 4.09442 10.1562 4.02758C10.4008 3.93452 10.6721 3.94103 10.9119 4.04573C11.1517 4.15042 11.341 4.34495 11.439 4.58758C11.5097 4.76416 11.6295 4.91678 11.7843 5.02737C11.939 5.13796 12.1222 5.20189 12.3122 5.21158C12.5727 5.22372 12.8178 5.33852 12.9938 5.53086C13.1699 5.7232 13.2627 5.97744 13.2518 6.23798C13.243 6.42711 13.2893 6.61473 13.3851 6.77805C13.4809 6.94136 13.622 7.07335 13.7914 7.15798C13.9066 7.21514 14.0094 7.2946 14.0937 7.39175C14.178 7.48891 14.2422 7.60182 14.2826 7.72396C14.323 7.8461 14.3387 7.97504 14.3289 8.1033C14.3191 8.23156 14.2839 8.3566 14.2254 8.47118C14.1392 8.63896 14.104 8.82829 14.124 9.01584C14.1441 9.20339 14.2185 9.38099 14.3382 9.52678C14.4197 9.62619 14.4807 9.74083 14.5174 9.86402C14.5542 9.98721 14.5661 10.1165 14.5525 10.2443C14.5388 10.3722 14.4998 10.496 14.4379 10.6086C14.3759 10.7213 14.2921 10.8204 14.1914 10.9004C14.0436 11.018 13.9333 11.1761 13.8741 11.3554C13.8148 11.5348 13.8092 11.7275 13.8578 11.91C13.8905 12.0346 13.8982 12.1645 13.8806 12.2921C13.863 12.4197 13.8204 12.5426 13.7552 12.6537C13.6899 12.7649 13.6034 12.862 13.5006 12.9396C13.3977 13.0172 13.2806 13.0738 13.1558 13.106C12.9724 13.1541 12.8067 13.2541 12.6786 13.394C12.5506 13.5339 12.4656 13.7078 12.4338 13.8948C12.3889 14.1521 12.2446 14.3815 12.0321 14.5333C11.8195 14.6852 11.5558 14.7473 11.2978 14.7064C11.1094 14.6772 10.9166 14.7023 10.742 14.7788C10.5674 14.8552 10.4182 14.9798 10.3118 15.138C10.1652 15.3551 9.93985 15.5065 9.68346 15.5601C9.42707 15.6137 9.15988 15.5653 8.9386 15.4252C8.77703 15.323 8.58978 15.2688 8.39861 15.2688C8.20743 15.2688 8.02018 15.323 7.85861 15.4252C7.63733 15.5653 7.37014 15.6137 7.11375 15.5601C6.85736 15.5065 6.63197 15.3551 6.48541 15.138C6.37904 14.9798 6.22981 14.8552 6.05519 14.7788C5.88057 14.7023 5.68778 14.6772 5.49941 14.7064C5.24142 14.7473 4.97767 14.6852 4.76512 14.5333C4.55257 14.3815 4.40828 14.1521 4.36341 13.8948C4.33163 13.7078 4.24662 13.5339 4.11857 13.394C3.99052 13.2541 3.82485 13.1541 3.64141 13.106C3.51666 13.0738 3.39949 13.0172 3.29664 12.9396C3.19379 12.862 3.10727 12.7649 3.04205 12.6537C2.97683 12.5426 2.93419 12.4197 2.91658 12.2921C2.89896 12.1645 2.90672 12.0346 2.93941 11.91C2.98803 11.7275 2.98237 11.5348 2.92312 11.3554C2.86386 11.1761 2.75359 11.018 2.60581 10.9004C2.50512 10.8204 2.42134 10.7213 2.35935 10.6086C2.29737 10.496 2.25841 10.3722 2.24475 10.2443C2.23108 10.1165 2.24299 9.98721 2.27978 9.86402C2.31656 9.74083 2.37749 9.62619 2.45901 9.52678C2.57869 9.38099 2.65313 9.20339 2.67318 9.01584C2.69322 8.82829 2.65798 8.63896 2.57181 8.47118C2.51338 8.35659 2.47826 8.23156 2.46847 8.10331C2.45868 7.97506 2.47442 7.84614 2.51478 7.72402C2.55514 7.60189 2.61932 7.48898 2.7036 7.39182C2.78789 7.29466 2.8906 7.21518 3.00581 7.15798C3.17518 7.07335 3.31633 6.94136 3.41212 6.77805C3.50791 6.61473 3.55421 6.42711 3.5454 6.23798C3.53455 5.97744 3.6273 5.7232 3.80338 5.53086C3.97945 5.33852 4.22452 5.22372 4.485 5.21158C4.67495 5.20184 4.85814 5.1379 5.01288 5.02731C5.16763 4.91673 5.28747 4.76413 5.35821 4.58758C5.45624 4.34495 5.64547 4.15042 5.8853 4.04573C6.12512 3.94103 6.39643 3.93452 6.64101 4.02758C6.81982 4.09442 7.01393 4.10916 7.20079 4.07007C7.38764 4.03099 7.55958 3.93969 7.69661 3.80677C7.8848 3.62442 8.13656 3.52246 8.39861 3.52246C8.66065 3.52246 8.91241 3.62442 9.1006 3.80677Z" fill="#999999"/>
<path d="M8.3982 4.98987C9.29927 4.98995 10.1801 5.25722 10.9293 5.75789C11.6784 6.25855 12.2623 6.97013 12.6071 7.80264C12.9519 8.63515 13.042 9.55119 12.8662 10.4349C12.6904 11.3187 12.2564 12.1305 11.6192 12.7676C10.9821 13.4047 10.1702 13.8386 9.28648 14.0144C8.40272 14.1901 7.48668 14.0999 6.6542 13.755C5.82172 13.4102 5.1102 12.8262 4.60959 12.077C4.10899 11.3278 3.8418 10.4469 3.8418 9.54587C3.8419 8.33751 4.322 7.17867 5.17648 6.32427C6.03096 5.46986 7.18983 4.98987 8.3982 4.98987V4.98987Z" fill="#E0DFE5"/>
<path d="M10.348 12.0004V10.9855H8.13959C9.54421 9.96245 10.3074 9.15865 10.3074 8.23307C10.3074 7.15322 9.38724 6.50098 8.23702 6.50098C7.84619 6.49276 7.45807 6.56765 7.09835 6.72068C6.73863 6.87371 6.41552 7.1014 6.15039 7.38867L6.81075 8.15188C6.99502 7.95156 7.21945 7.79235 7.46941 7.68462C7.71936 7.5769 7.98922 7.52309 8.26138 7.5267C8.70522 7.5267 9.13825 7.76215 9.13825 8.23307C9.13825 8.89884 8.48871 9.45636 6.27218 11.0991V12.0004H10.348Z" fill="#777777"/>
</g>
<defs>
<clipPath id="clip0">
<rect width="16" height="16" fill="white"/>
</clipPath>
</defs>
</svg>
