<svg width="16" height="16" viewBox="0 0 16 16" fill="none" xmlns="http://www.w3.org/2000/svg">
<g clip-path="url(#clip0)">
<g opacity="0.8">
<path opacity="0.8" d="M12.0482 -4.4267L5.44824 4.8001H11.0526L17.483 -4.1879C17.505 -4.21856 17.5182 -4.25471 17.5209 -4.29234C17.5237 -4.32998 17.5161 -4.36766 17.4988 -4.40124C17.4816 -4.43481 17.4554 -4.46298 17.4232 -4.48264C17.391 -4.50231 17.354 -4.51271 17.3162 -4.5127H12.215C12.1824 -4.51266 12.1502 -4.50484 12.1212 -4.48988C12.0922 -4.47492 12.0672 -4.45326 12.0482 -4.4267Z" fill="#548DE6"/>
<path opacity="0.8" d="M15.9722 -4.5127L9.30898 4.79971H7.38379L14.047 -4.5127H15.9722Z" fill="#D2E4FF"/>
<g opacity="0.8">
<path opacity="0.8" d="M17.3166 -4.5127H15.9698L9.30859 4.79971H11.053L17.4834 -4.1879C17.5054 -4.21856 17.5185 -4.25471 17.5213 -4.29234C17.5241 -4.32998 17.5164 -4.36766 17.4992 -4.40124C17.4819 -4.43481 17.4558 -4.46298 17.4236 -4.48264C17.3913 -4.50231 17.3543 -4.51271 17.3166 -4.5127Z" fill="#548DE6"/>
<path opacity="0.8" d="M-1.22814 -4.18789L5.20226 4.80011H10.8083L4.20706 -4.42669C4.18806 -4.45332 4.16297 -4.47501 4.13389 -4.48997C4.1048 -4.50493 4.07256 -4.51272 4.03986 -4.51269H-1.06094C-1.09872 -4.51278 -1.13579 -4.50243 -1.16806 -4.4828C-1.20033 -4.46316 -1.22656 -4.435 -1.24385 -4.40141C-1.26114 -4.36783 -1.26882 -4.33012 -1.26605 -4.29244C-1.26328 -4.25477 -1.25016 -4.21859 -1.22814 -4.18789Z" fill="#548DE6"/>
</g>
<path opacity="0.8" d="M0.386719 -4.5127L7.04992 4.79971H8.97512L2.31192 -4.5127H0.386719Z" fill="#D2E4FF"/>
<path opacity="0.8" d="M-1.06037 -4.5127C-1.09811 -4.51271 -1.13512 -4.50231 -1.16734 -4.48264C-1.19955 -4.46298 -1.22572 -4.43481 -1.24296 -4.40124C-1.2602 -4.36766 -1.26785 -4.32998 -1.26506 -4.29234C-1.26228 -4.25471 -1.24916 -4.21856 -1.22717 -4.1879L5.20323 4.8001H7.05083L0.387633 -4.5127H-1.06037Z" fill="#548DE6"/>
</g>
<path d="M8.81911 3.77483C8.95437 3.90536 9.12381 3.99496 9.30785 4.03325C9.49189 4.07155 9.683 4.05698 9.85911 3.99123C10.0998 3.90054 10.3663 3.9073 10.6021 4.01009C10.8378 4.11288 11.0242 4.30357 11.1215 4.54163C11.1915 4.7149 11.3095 4.86456 11.4618 4.97293C11.614 5.08129 11.7941 5.14385 11.9807 5.15323C12.2365 5.16456 12.4775 5.27676 12.6508 5.4653C12.8241 5.65383 12.9157 5.90334 12.9055 6.15923C12.8971 6.34478 12.9429 6.52877 13.0372 6.68878C13.1315 6.84879 13.2703 6.97792 13.4367 7.06043C13.55 7.11614 13.6511 7.19384 13.7341 7.289C13.8171 7.38417 13.8803 7.4949 13.92 7.61474C13.9598 7.73458 13.9753 7.86113 13.9657 7.98702C13.956 8.11292 13.9214 8.23564 13.8639 8.34803C13.7791 8.51247 13.7445 8.69817 13.7643 8.88211C13.784 9.06605 13.8573 9.24016 13.9751 9.38283C14.0553 9.48017 14.1152 9.59254 14.1514 9.71335C14.1876 9.83416 14.1994 9.96099 14.1859 10.0864C14.1725 10.2118 14.1341 10.3332 14.0731 10.4436C14.0121 10.554 13.9297 10.6511 13.8307 10.7292C13.6854 10.8442 13.5769 10.9991 13.5185 11.1749C13.4602 11.3508 13.4545 11.5398 13.5023 11.7188C13.5342 11.8412 13.5417 11.9686 13.5242 12.0939C13.5067 12.2191 13.4647 12.3396 13.4005 12.4486C13.3363 12.5575 13.2512 12.6527 13.1502 12.7287C13.0491 12.8046 12.934 12.8599 12.8115 12.8912C12.6312 12.9381 12.4683 13.036 12.3422 13.1731C12.2161 13.3102 12.1323 13.4808 12.1007 13.6644C12.0559 13.9175 11.9133 14.1429 11.7037 14.2917C11.4942 14.4406 11.2345 14.501 10.9807 14.46C10.7955 14.4314 10.6059 14.456 10.4341 14.5309C10.2623 14.6058 10.1153 14.728 10.0103 14.8832C9.86519 15.096 9.64311 15.2442 9.39088 15.2964C9.13866 15.3487 8.876 15.3009 8.65831 15.1632C8.49911 15.0634 8.31501 15.0105 8.12711 15.0105C7.9392 15.0105 7.75511 15.0634 7.59591 15.1632C7.37821 15.3009 7.11555 15.3487 6.86333 15.2964C6.6111 15.2442 6.38902 15.096 6.24391 14.8832C6.13886 14.728 5.99189 14.6058 5.82009 14.5309C5.64829 14.456 5.45873 14.4314 5.27351 14.46C5.01975 14.501 4.76004 14.4406 4.55048 14.2917C4.34091 14.1429 4.19832 13.9175 4.15351 13.6644C4.12195 13.4808 4.0381 13.3102 3.91203 13.1731C3.78596 13.036 3.623 12.9381 3.44271 12.8912C3.32018 12.8599 3.20504 12.8047 3.10392 12.7287C3.0028 12.6528 2.91768 12.5576 2.85345 12.4487C2.78922 12.3397 2.74715 12.2192 2.72966 12.0939C2.71216 11.9687 2.71959 11.8412 2.75151 11.7188C2.79927 11.5398 2.79363 11.3508 2.73528 11.1749C2.67693 10.9991 2.56841 10.8442 2.42311 10.7292C2.3241 10.6511 2.24168 10.554 2.18069 10.4436C2.1197 10.3332 2.08135 10.2118 2.0679 10.0864C2.05445 9.96099 2.06617 9.83416 2.10237 9.71335C2.13857 9.59254 2.19852 9.48017 2.27871 9.38283C2.39653 9.24018 2.46987 9.06608 2.48964 8.88212C2.5094 8.69817 2.47473 8.51245 2.38991 8.34803C2.33237 8.23564 2.29778 8.11292 2.28814 7.98702C2.2785 7.86113 2.29402 7.73458 2.33378 7.61474C2.37354 7.4949 2.43675 7.38417 2.51973 7.289C2.60271 7.19384 2.7038 7.11614 2.81711 7.06043C2.98351 6.97792 3.12232 6.84879 3.21664 6.68878C3.31096 6.52877 3.3567 6.34478 3.34831 6.15923C3.33822 5.90337 3.42984 5.65392 3.60313 5.46541C3.77642 5.2769 4.0173 5.16466 4.27311 5.15323C4.46015 5.14405 4.64065 5.08145 4.79321 4.97284C4.94577 4.86423 5.06401 4.71417 5.13391 4.54043C5.23124 4.30238 5.41759 4.11168 5.65334 4.00889C5.8891 3.90611 6.15564 3.89934 6.39631 3.99003C6.57241 4.05577 6.76353 4.07034 6.94756 4.03205C7.1316 3.99376 7.30104 3.90416 7.43631 3.77363C7.62206 3.59466 7.87001 3.49477 8.12795 3.495C8.38588 3.49522 8.63367 3.59554 8.81911 3.77483Z" fill="#CC6601"/>
<path d="M8.12811 4.93481C9.0115 4.93474 9.87507 5.19662 10.6096 5.68734C11.3442 6.17807 11.9167 6.8756 12.2548 7.69172C12.5929 8.50784 12.6814 9.4059 12.5091 10.2723C12.3368 11.1387 11.9115 11.9346 11.2869 12.5593C10.6623 13.184 9.86642 13.6094 9.00001 13.7818C8.1336 13.9541 7.23554 13.8657 6.41938 13.5277C5.60323 13.1896 4.90565 12.6172 4.41486 11.8827C3.92407 11.1481 3.66211 10.2846 3.66211 9.40121C3.66206 8.8147 3.77753 8.23391 4.00195 7.69203C4.22636 7.15014 4.55532 6.65777 4.97003 6.24302C5.38474 5.82827 5.87709 5.49927 6.41895 5.27481C6.96082 5.05034 7.54159 4.93481 8.12811 4.93481Z" fill="#EC9047"/>
<path d="M8.24291 11.9962C9.5183 11.9962 10.3393 11.3485 10.3393 10.4338C10.3251 10.1057 10.1904 9.79443 9.96095 9.55947C9.73152 9.32452 9.42349 9.18244 9.09583 9.16043C9.4018 9.12792 9.68643 8.98828 9.89939 8.76619C10.1124 8.54411 10.24 8.25388 10.2596 7.94682C10.2596 7.06201 9.49439 6.50204 8.25088 6.50204C7.87088 6.48704 7.49218 6.55504 7.14114 6.70131C6.7901 6.84758 6.47515 7.0686 6.21823 7.34898L6.78418 8.05841C7.14308 7.70601 7.62633 7.50913 8.12932 7.51039C8.6873 7.51039 9.11775 7.71764 9.11775 8.14012C9.11775 8.53071 8.72716 8.70607 8.13729 8.70607C7.93801 8.70607 7.57134 8.70607 7.47568 8.6981V9.71841C7.55539 9.71044 7.9141 9.70247 8.13729 9.70247C8.87861 9.70247 9.20543 9.89378 9.20543 10.3163C9.20543 10.7148 8.84673 10.9938 8.20106 10.9938C7.65183 10.9891 7.12592 10.7712 6.73436 10.386L6.14648 11.1433C6.41157 11.431 6.73694 11.6567 7.09934 11.8041C7.46174 11.9516 7.85223 12.0171 8.24291 11.9962Z" fill="#A45100"/>
</g>
<defs>
<clipPath id="clip0">
<rect width="16" height="16" fill="white"/>
</clipPath>
</defs>
</svg>
